<svg width="167" height="18" viewBox="0 0 167 18" fill="none" xmlns="http://www.w3.org/2000/svg">
<g clip-path="url(#clip0_0_34)">
<path d="M12.2427 11.3995L8 15.5L3.75734 11.3995C2.91823 10.5885 2.34679 9.55518 2.11529 8.43029C1.88378 7.3054 2.0026 6.13942 2.45673 5.0798C2.91086 4.02017 3.67989 3.1145 4.66659 2.4773C5.65328 1.8401 6.81332 1.5 8 1.5C9.18668 1.5 10.3467 1.8401 11.3334 2.4773C12.3201 3.1145 13.0891 4.02017 13.5433 5.0798C13.9974 6.13942 14.1162 7.3054 13.8847 8.43029C13.6532 9.55518 13.0818 10.5885 12.2427 11.3995ZM8 8.5876C8.35362 8.5876 8.69276 8.45183 8.94281 8.21016C9.19286 7.96849 9.33333 7.64071 9.33333 7.29894C9.33333 6.95716 9.19286 6.62939 8.94281 6.38772C8.69276 6.14604 8.35362 6.01027 8 6.01027C7.64638 6.01027 7.30724 6.14604 7.05719 6.38772C6.80714 6.62939 6.66667 6.95716 6.66667 7.29894C6.66667 7.64071 6.80714 7.96849 7.05719 8.21016C7.30724 8.45183 7.64638 8.5876 8 8.5876Z" fill="#BF00FF"/>
</g>
<path d="M21.233 14V3.81818H22.4659V8.86932H22.5852L27.1591 3.81818H28.7699L24.4943 8.41193L28.7699 14H27.2784L23.7386 9.26705L22.4659 10.6989V14H21.233ZM32.7484 14.1591C32.059 14.1591 31.4541 13.995 30.9338 13.6669C30.4167 13.3388 30.0124 12.8797 29.7207 12.2898C29.4324 11.6998 29.2882 11.0104 29.2882 10.2216C29.2882 9.42614 29.4324 8.73177 29.7207 8.13849C30.0124 7.54522 30.4167 7.08452 30.9338 6.75639C31.4541 6.42827 32.059 6.2642 32.7484 6.2642C33.4378 6.2642 34.041 6.42827 34.5581 6.75639C35.0784 7.08452 35.4828 7.54522 35.7711 8.13849C36.0628 8.73177 36.2086 9.42614 36.2086 10.2216C36.2086 11.0104 36.0628 11.6998 35.7711 12.2898C35.4828 12.8797 35.0784 13.3388 34.5581 13.6669C34.041 13.995 33.4378 14.1591 32.7484 14.1591ZM32.7484 13.1051C33.2721 13.1051 33.7029 12.9709 34.041 12.7024C34.3791 12.4339 34.6293 12.081 34.7917 11.6435C34.9541 11.206 35.0353 10.732 35.0353 10.2216C35.0353 9.71117 34.9541 9.23556 34.7917 8.79474C34.6293 8.35393 34.3791 7.99763 34.041 7.72585C33.7029 7.45407 33.2721 7.31818 32.7484 7.31818C32.2247 7.31818 31.7939 7.45407 31.4558 7.72585C31.1177 7.99763 30.8675 8.35393 30.7051 8.79474C30.5427 9.23556 30.4615 9.71117 30.4615 10.2216C30.4615 10.732 30.5427 11.206 30.7051 11.6435C30.8675 12.081 31.1177 12.4339 31.4558 12.7024C31.7939 12.9709 32.2247 13.1051 32.7484 13.1051ZM41.3207 6.36364V7.35795H37.3633V6.36364H41.3207ZM38.5167 4.53409H39.69V11.8125C39.69 12.1439 39.738 12.3925 39.8342 12.5582C39.9336 12.7206 40.0595 12.83 40.212 12.8864C40.3678 12.9394 40.5318 12.9659 40.7042 12.9659C40.8335 12.9659 40.9395 12.9593 41.0224 12.946C41.1052 12.9295 41.1715 12.9162 41.2212 12.9062L41.4599 13.9602C41.3803 13.9901 41.2693 14.0199 41.1268 14.0497C40.9843 14.0829 40.8036 14.0994 40.5849 14.0994C40.2534 14.0994 39.9286 14.0282 39.6104 13.8857C39.2956 13.7431 39.0337 13.526 38.8249 13.2344C38.6194 12.9427 38.5167 12.5748 38.5167 12.1307V4.53409ZM45.3327 14.179C44.8488 14.179 44.4097 14.0878 44.0153 13.9055C43.6209 13.7199 43.3076 13.4531 43.0756 13.1051C42.8436 12.7538 42.7276 12.3295 42.7276 11.8324C42.7276 11.3949 42.8138 11.0402 42.9862 10.7685C43.1585 10.4934 43.3888 10.2779 43.6772 10.1222C43.9656 9.96638 44.2837 9.85038 44.6317 9.77415C44.9831 9.6946 45.3361 9.63163 45.6907 9.58523C46.1547 9.52557 46.5309 9.48082 46.8192 9.45099C47.1109 9.41785 47.323 9.36316 47.4556 9.28693C47.5915 9.2107 47.6594 9.07812 47.6594 8.8892V8.84943C47.6594 8.3589 47.5252 7.97775 47.2567 7.70597C46.9916 7.43419 46.5889 7.2983 46.0487 7.2983C45.4885 7.2983 45.0494 7.42093 44.7312 7.66619C44.413 7.91146 44.1893 8.1733 44.06 8.4517L42.9464 8.05398C43.1452 7.58996 43.4104 7.22869 43.7418 6.97017C44.0766 6.70833 44.4412 6.52604 44.8356 6.4233C45.2333 6.31723 45.6244 6.2642 46.0089 6.2642C46.2541 6.2642 46.5359 6.29403 46.854 6.35369C47.1755 6.41004 47.4854 6.5277 47.7837 6.70668C48.0853 6.88565 48.3356 7.15578 48.5344 7.51705C48.7333 7.87831 48.8327 8.36222 48.8327 8.96875V14H47.6594V12.9659H47.5998C47.5202 13.1316 47.3877 13.3089 47.2021 13.4979C47.0165 13.6868 46.7695 13.8475 46.4613 13.9801C46.1531 14.1127 45.7769 14.179 45.3327 14.179ZM45.5117 13.125C45.9757 13.125 46.3668 13.0339 46.685 12.8516C47.0065 12.6693 47.2485 12.4339 47.4109 12.1456C47.5766 11.8572 47.6594 11.554 47.6594 11.2358V10.1619C47.6097 10.2216 47.5004 10.2763 47.3313 10.326C47.1656 10.3724 46.9734 10.4138 46.7546 10.4503C46.5392 10.4834 46.3287 10.5133 46.1232 10.5398C45.921 10.563 45.757 10.5829 45.631 10.5994C45.3261 10.6392 45.0411 10.7038 44.7759 10.7933C44.5141 10.8795 44.302 11.0104 44.1396 11.1861C43.9805 11.3584 43.9009 11.5937 43.9009 11.892C43.9009 12.2997 44.0517 12.608 44.3533 12.8168C44.6583 13.0223 45.0444 13.125 45.5117 13.125ZM55.0708 14V3.81818H58.6305C59.3398 3.81818 59.9248 3.94081 60.3855 4.18608C60.8462 4.42803 61.1892 4.7545 61.4146 5.16548C61.64 5.57315 61.7527 6.02557 61.7527 6.52273C61.7527 6.96023 61.6748 7.3215 61.519 7.60653C61.3665 7.89157 61.1644 8.11695 60.9125 8.28267C60.6639 8.44839 60.3938 8.57102 60.1021 8.65057V8.75C60.4136 8.76989 60.7269 8.87926 61.0417 9.07812C61.3566 9.27699 61.6201 9.56203 61.8322 9.93324C62.0443 10.3045 62.1504 10.7585 62.1504 11.2955C62.1504 11.8059 62.0344 12.2649 61.8024 12.6726C61.5704 13.0803 61.2041 13.4034 60.7037 13.642C60.2032 13.8807 59.5519 14 58.7498 14H55.0708ZM56.3038 12.9062H58.7498C59.5552 12.9062 60.127 12.7505 60.465 12.4389C60.8064 12.1241 60.9771 11.7429 60.9771 11.2955C60.9771 10.9508 60.8893 10.6326 60.7136 10.3409C60.5379 10.0459 60.2877 9.81061 59.9629 9.63494C59.6381 9.45597 59.2536 9.36648 58.8095 9.36648H56.3038V12.9062ZM56.3038 8.29261H58.5907C58.9619 8.29261 59.2967 8.2197 59.595 8.07386C59.8966 7.92803 60.1352 7.72254 60.3109 7.45739C60.4899 7.19223 60.5794 6.88068 60.5794 6.52273C60.5794 6.07528 60.4236 5.69579 60.112 5.38423C59.8005 5.06937 59.3066 4.91193 58.6305 4.91193H56.3038V8.29261ZM66.2644 14.179C65.7805 14.179 65.3413 14.0878 64.9469 13.9055C64.5525 13.7199 64.2393 13.4531 64.0073 13.1051C63.7753 12.7538 63.6593 12.3295 63.6593 11.8324C63.6593 11.3949 63.7454 11.0402 63.9178 10.7685C64.0901 10.4934 64.3205 10.2779 64.6088 10.1222C64.8972 9.96638 65.2154 9.85038 65.5634 9.77415C65.9147 9.6946 66.2677 9.63163 66.6223 9.58523C67.0864 9.52557 67.4625 9.48082 67.7509 9.45099C68.0426 9.41785 68.2547 9.36316 68.3873 9.28693C68.5231 9.2107 68.5911 9.07812 68.5911 8.8892V8.84943C68.5911 8.3589 68.4569 7.97775 68.1884 7.70597C67.9232 7.43419 67.5205 7.2983 66.9803 7.2983C66.4202 7.2983 65.981 7.42093 65.6628 7.66619C65.3446 7.91146 65.1209 8.1733 64.9917 8.4517L63.878 8.05398C64.0769 7.58996 64.342 7.22869 64.6735 6.97017C65.0082 6.70833 65.3728 6.52604 65.7672 6.4233C66.165 6.31723 66.556 6.2642 66.9405 6.2642C67.1858 6.2642 67.4675 6.29403 67.7857 6.35369C68.1072 6.41004 68.4171 6.5277 68.7154 6.70668C69.017 6.88565 69.2672 7.15578 69.4661 7.51705C69.665 7.87831 69.7644 8.36222 69.7644 8.96875V14H68.5911V12.9659H68.5314C68.4519 13.1316 68.3193 13.3089 68.1337 13.4979C67.9481 13.6868 67.7012 13.8475 67.3929 13.9801C67.0847 14.1127 66.7085 14.179 66.2644 14.179ZM66.4434 13.125C66.9074 13.125 67.2985 13.0339 67.6167 12.8516C67.9382 12.6693 68.1801 12.4339 68.3425 12.1456C68.5082 11.8572 68.5911 11.554 68.5911 11.2358V10.1619C68.5414 10.2216 68.432 10.2763 68.263 10.326C68.0972 10.3724 67.905 10.4138 67.6863 10.4503C67.4708 10.4834 67.2604 10.5133 67.0549 10.5398C66.8527 10.563 66.6886 10.5829 66.5627 10.5994C66.2578 10.6392 65.9727 10.7038 65.7076 10.7933C65.4457 10.8795 65.2336 11.0104 65.0712 11.1861C64.9121 11.3584 64.8326 11.5937 64.8326 11.892C64.8326 12.2997 64.9834 12.608 65.285 12.8168C65.5899 13.0223 65.976 13.125 66.4434 13.125ZM73.0792 9.40625V14H71.9059V6.36364H73.0394V7.55682H73.1388C73.3178 7.16903 73.5896 6.85748 73.9542 6.62216C74.3188 6.38352 74.7894 6.2642 75.3661 6.2642C75.8832 6.2642 76.3356 6.37027 76.7234 6.58239C77.1112 6.79119 77.4128 7.10938 77.6282 7.53693C77.8436 7.96117 77.9513 8.49811 77.9513 9.14773V14H76.7781V9.22727C76.7781 8.62737 76.6223 8.16004 76.3107 7.82528C75.9992 7.48722 75.5716 7.31818 75.0281 7.31818C74.6535 7.31818 74.3188 7.39938 74.0238 7.56179C73.7321 7.72419 73.5018 7.96117 73.3327 8.27273C73.1637 8.58428 73.0792 8.96212 73.0792 9.40625ZM82.9789 14.1591C82.3425 14.1591 81.7807 13.9983 81.2935 13.6768C80.8063 13.352 80.4251 12.8946 80.15 12.3047C79.8749 11.7114 79.7374 11.0104 79.7374 10.2017C79.7374 9.39962 79.8749 8.7036 80.15 8.11364C80.4251 7.52367 80.8079 7.06794 81.2985 6.74645C81.789 6.42495 82.3558 6.2642 82.9988 6.2642C83.4959 6.2642 83.8887 6.34706 84.177 6.51278C84.4687 6.67519 84.6908 6.8608 84.8432 7.0696C84.999 7.27509 85.12 7.44413 85.2061 7.5767H85.3056V3.81818H86.4789V14H85.3453V12.8267H85.2061C85.12 12.9659 84.9973 13.1416 84.8382 13.3537C84.6792 13.5625 84.4521 13.7498 84.1571 13.9155C83.8622 14.0779 83.4694 14.1591 82.9789 14.1591ZM83.138 13.1051C83.6086 13.1051 84.0063 12.9825 84.3311 12.7372C84.656 12.4886 84.9029 12.1456 85.0719 11.7081C85.2409 11.2673 85.3255 10.7585 85.3255 10.1818C85.3255 9.61174 85.2426 9.11293 85.0769 8.68537C84.9112 8.2545 84.6659 7.91974 84.3411 7.68111C84.0163 7.43916 83.6152 7.31818 83.138 7.31818C82.6408 7.31818 82.2265 7.44579 81.8951 7.70099C81.5669 7.95289 81.32 8.29593 81.1543 8.73011C80.9919 9.16098 80.9107 9.64489 80.9107 10.1818C80.9107 10.7254 80.9935 11.2192 81.1593 11.6634C81.3283 12.1042 81.5769 12.4555 81.905 12.7173C82.2364 12.9759 82.6474 13.1051 83.138 13.1051ZM93.6032 10.8778V6.36364H94.7765V14H93.6032V12.7074H93.5236C93.3446 13.0952 93.0662 13.425 92.6884 13.6967C92.3105 13.9652 91.8333 14.0994 91.2566 14.0994C90.7793 14.0994 90.3551 13.995 89.9838 13.7862C89.6126 13.5741 89.321 13.2559 89.1088 12.8317C88.8967 12.4041 88.7907 11.8655 88.7907 11.2159V6.36364H89.964V11.1364C89.964 11.6932 90.1197 12.1373 90.4313 12.4688C90.7462 12.8002 91.1472 12.9659 91.6344 12.9659C91.9261 12.9659 92.2227 12.8913 92.5243 12.7422C92.8292 12.593 93.0845 12.3643 93.29 12.0561C93.4988 11.7479 93.6032 11.3551 93.6032 10.8778ZM98.0987 9.40625V14H96.9254V6.36364H98.0589V7.55682H98.1584C98.3374 7.16903 98.6091 6.85748 98.9737 6.62216C99.3383 6.38352 99.8089 6.2642 100.386 6.2642C100.903 6.2642 101.355 6.37027 101.743 6.58239C102.131 6.79119 102.432 7.10938 102.648 7.53693C102.863 7.96117 102.971 8.49811 102.971 9.14773V14H101.798V9.22727C101.798 8.62737 101.642 8.16004 101.33 7.82528C101.019 7.48722 100.591 7.31818 100.048 7.31818C99.6731 7.31818 99.3383 7.39938 99.0433 7.56179C98.7517 7.72419 98.5213 7.96117 98.3523 8.27273C98.1832 8.58428 98.0987 8.96212 98.0987 9.40625ZM108.197 17.0227C107.631 17.0227 107.143 16.9498 106.736 16.804C106.328 16.6615 105.988 16.4725 105.716 16.2372C105.448 16.0052 105.234 15.7566 105.075 15.4915L106.01 14.8352C106.116 14.9744 106.25 15.1335 106.412 15.3125C106.575 15.4948 106.797 15.6522 107.079 15.7848C107.364 15.9207 107.737 15.9886 108.197 15.9886C108.814 15.9886 109.323 15.8395 109.724 15.5412C110.125 15.2429 110.325 14.7756 110.325 14.1392V12.5881H110.226C110.14 12.7273 110.017 12.8996 109.858 13.1051C109.702 13.3073 109.477 13.4879 109.182 13.647C108.89 13.8028 108.496 13.8807 107.998 13.8807C107.382 13.8807 106.828 13.7348 106.338 13.4432C105.851 13.1515 105.465 12.7273 105.18 12.1705C104.898 11.6136 104.757 10.9375 104.757 10.142C104.757 9.35985 104.894 8.67874 105.17 8.09872C105.445 7.51539 105.827 7.06463 106.318 6.74645C106.809 6.42495 107.375 6.2642 108.018 6.2642C108.515 6.2642 108.91 6.34706 109.202 6.51278C109.497 6.67519 109.722 6.8608 109.878 7.0696C110.037 7.27509 110.159 7.44413 110.246 7.5767H110.365V6.36364H111.498V14.2188C111.498 14.875 111.349 15.4086 111.051 15.8196C110.756 16.2339 110.358 16.5372 109.858 16.7294C109.361 16.925 108.807 17.0227 108.197 17.0227ZM108.157 12.8267C108.628 12.8267 109.026 12.719 109.351 12.5036C109.675 12.2881 109.922 11.9782 110.091 11.5739C110.26 11.1695 110.345 10.6856 110.345 10.1222C110.345 9.57197 110.262 9.08641 110.096 8.66548C109.931 8.24455 109.685 7.91477 109.361 7.67614C109.036 7.4375 108.635 7.31818 108.157 7.31818C107.66 7.31818 107.246 7.44413 106.915 7.69602C106.586 7.94792 106.34 8.28598 106.174 8.71023C106.011 9.13447 105.93 9.60511 105.93 10.1222C105.93 10.6525 106.013 11.1214 106.179 11.5291C106.348 11.9335 106.596 12.2517 106.925 12.4837C107.256 12.7124 107.667 12.8267 108.157 12.8267Z" fill="#828282"/>
<defs>
<clipPath id="clip0_0_34">
<rect width="16" height="16" fill="white" transform="translate(0 0.5)"/>
</clipPath>
</defs>
</svg>
